<svg width="30" height="30" viewBox="0 0 30 30" fill="none" xmlns="http://www.w3.org/2000/svg">
<path fill-rule="evenodd" clip-rule="evenodd" d="M9.16 8.45849C11.0911 8.15273 13.044 7.99941 15 8C16.9876 8 18.9378 8.1575 20.84 8.45849C22.1173 8.66061 23 9.76221 23 10.9977V15.5021C23 16.7384 22.1173 17.8383 20.84 18.0413C19.3152 18.2829 17.7764 18.4293 16.2329 18.4797C16.0568 18.4839 15.889 18.554 15.7636 18.6756L12.5822 21.8081C12.4889 21.8998 12.3701 21.9622 12.2408 21.9875C12.1115 22.0127 11.9774 21.9996 11.8557 21.9499C11.7339 21.9002 11.6298 21.816 11.5566 21.7081C11.4834 21.6001 11.4444 21.4732 11.4444 21.3435V18.3309C10.6801 18.2584 9.9182 18.1621 9.16 18.0422C7.88267 17.8383 7 16.7376 7 15.5012V10.9977C7 9.76134 7.88267 8.66149 9.16 8.45849Z" fill="white"/>
<circle cx="15" cy="15" r="14.5" stroke="white"/>
</svg>
