<svg width="30" height="30" viewBox="0 0 30 30" fill="none" xmlns="http://www.w3.org/2000/svg">
<path d="M18.4663 23H11.5329C8.82152 23 7 21.0975 7 18.2666V11.7334C7 8.90249 8.82152 7 11.5329 7H18.4671C21.1785 7 23 8.90249 23 11.7334V18.2666C23 21.0975 21.1785 23 18.4663 23" fill="white"/>
<path fill-rule="evenodd" clip-rule="evenodd" d="M12.1993 14.2002C11.0964 14.2002 10.2002 13.3028 10.2002 12.2002C10.2002 11.0976 11.0964 10.2002 12.1993 10.2002C13.3014 10.2002 14.1984 11.0976 14.1984 12.2002C14.1984 13.3028 13.3014 14.2002 12.1993 14.2002" fill="#0B071C"/>
<path fill-rule="evenodd" clip-rule="evenodd" d="M21.257 17.3472C21.5249 18.0341 21.3858 18.8597 21.0994 19.54C20.7599 20.3491 20.1099 20.9617 19.2909 21.2292C18.9273 21.3481 18.546 21.4001 18.1655 21.4001H11.4233C10.7524 21.4001 10.1587 21.2391 9.67199 20.9394C9.3671 20.7512 9.3132 20.3169 9.53926 20.0354C9.91735 19.5648 10.2906 19.0925 10.6671 18.6162C11.3847 17.7047 11.8682 17.4405 12.4056 17.6725C12.6236 17.7683 12.8424 17.9119 13.0676 18.0639C13.6678 18.4717 14.502 19.0323 15.6009 18.4238C16.3571 18.0003 16.7939 17.2721 17.1752 16.6405C17.3313 16.3846 17.4793 16.1287 17.6514 15.8967C17.83 15.6564 18.4921 14.9051 19.3497 15.4401C19.8959 15.777 20.3552 16.2327 20.8468 16.7206C21.0342 16.9072 21.1677 17.1194 21.257 17.3472" fill="#0B071C"/>
<circle cx="15" cy="15" r="14.5" stroke="white"/>
</svg>
