<svg width="30" height="30" viewBox="0 0 30 30" fill="none" xmlns="http://www.w3.org/2000/svg">
<circle cx="15" cy="15" r="14.5" stroke="white"/>
<path d="M14.2828 16.0489L14.2122 16.1093L8.31664 21.8891C8.75232 22.1573 9.25425 22.2989 9.76605 22.298H13.9483L14.2513 21.0884C14.3892 20.5377 14.6743 20.0345 15.0769 19.6333L16.8727 17.8398L15.1067 16.1093L15.0267 16.043C14.9177 15.9664 14.7874 15.9258 14.6542 15.9268C14.521 15.9279 14.3905 15.9706 14.2828 16.0489ZM18.4923 11.4641C18.4923 11.3802 18.4757 11.297 18.4436 11.2195C18.4114 11.1419 18.3643 11.0715 18.3048 11.0121C18.2454 10.9528 18.1749 10.9057 18.0972 10.8736C18.0196 10.8414 17.9363 10.8249 17.8523 10.8249C17.7682 10.8249 17.685 10.8414 17.6074 10.8736C17.5297 10.9057 17.4591 10.9528 17.3997 11.0121C17.3403 11.0715 17.2931 11.1419 17.261 11.2195C17.2288 11.297 17.2123 11.3802 17.2123 11.4641C17.2123 11.6336 17.2797 11.7962 17.3997 11.9161C17.5197 12.0359 17.6825 12.1033 17.8523 12.1033C18.022 12.1033 18.1848 12.0359 18.3048 11.9161C18.4249 11.7962 18.4923 11.6336 18.4923 11.4641ZM17.7748 16.9388L16.0003 15.1998L15.8914 15.1003C15.5474 14.8116 15.1127 14.6529 14.6633 14.652C14.214 14.651 13.7786 14.8079 13.4334 15.0952L13.3177 15.1998L7.41278 20.9881C7.14242 20.5524 6.99944 20.0498 7 19.5372V9.76244C7 9.02979 7.29142 8.32716 7.81016 7.8091C8.32889 7.29104 9.03245 7 9.76605 7H19.5528C20.2864 7 20.9899 7.29104 21.5087 7.8091C22.0274 8.32716 22.3188 9.02979 22.3188 9.76244V13.8092C21.9122 13.7735 21.5027 13.8273 21.1192 13.9668C20.7357 14.1063 20.3875 14.3282 20.0992 14.6167L17.7748 16.9388ZM15.9365 11.4641C15.9311 11.7188 15.9767 11.972 16.0706 12.2089C16.1645 12.4458 16.3047 12.6616 16.4832 12.8436C16.6617 13.0256 16.8748 13.1703 17.1099 13.269C17.3451 13.3677 17.5976 13.4186 17.8527 13.4186C18.1078 13.4186 18.3603 13.3677 18.5955 13.269C18.8307 13.1703 19.0437 13.0256 19.2222 12.8436C19.4007 12.6616 19.541 12.4458 19.6348 12.2089C19.7287 11.972 19.7743 11.7188 19.7689 11.4641C19.7689 10.9564 19.567 10.4696 19.2076 10.1106C18.8481 9.75161 18.3606 9.54994 17.8523 9.54994C17.344 9.54994 16.8564 9.75161 16.497 10.1106C16.1376 10.4696 15.9356 10.9564 15.9356 11.4641H15.9365ZM20.7009 15.2185L15.6786 20.2342C15.3854 20.5268 15.1774 20.8934 15.0769 21.295L14.6879 22.8505C14.5177 23.5279 15.1322 24.1407 15.8097 23.9716L17.3672 23.5823C17.7691 23.4821 18.1363 23.2747 18.4293 22.9822L23.4516 17.9648C23.8071 17.5984 24.004 17.1072 23.9999 16.5972C23.9959 16.0871 23.7911 15.5991 23.4299 15.2384C23.0687 14.8778 22.58 14.6735 22.0693 14.6696C21.5585 14.6657 21.0667 14.8625 20.7 15.2176L20.7009 15.2185Z" fill="white"/>
</svg>
