<svg width="30" height="30" viewBox="0 0 30 30" fill="none" xmlns="http://www.w3.org/2000/svg">
<circle cx="15" cy="15" r="14.5" stroke="white"/>
<path fill-rule="evenodd" clip-rule="evenodd" d="M7 9.97727C7 9.16103 7.64 8.5 8.42857 8.5H21.5714C22.36 8.5 23 9.16182 23 9.97727V20.0227C23 20.8382 22.36 21.5 21.5714 21.5H8.42857C8.04969 21.5 7.68633 21.3444 7.41842 21.0673C7.15051 20.7903 7 20.4145 7 20.0227V9.97727ZM8.14286 9.97727V11.1591C8.14286 11.3222 8.27086 11.4545 8.42857 11.4545H9.57143C9.6472 11.4545 9.71988 11.4234 9.77346 11.368C9.82704 11.3126 9.85714 11.2375 9.85714 11.1591V9.97727C9.85714 9.89891 9.82704 9.82376 9.77346 9.76836C9.71988 9.71295 9.6472 9.68182 9.57143 9.68182H8.42857C8.3528 9.68182 8.28012 9.71295 8.22654 9.76836C8.17296 9.82376 8.14286 9.89891 8.14286 9.97727ZM20.4286 9.68182C20.3528 9.68182 20.2801 9.71295 20.2265 9.76836C20.173 9.82376 20.1429 9.89891 20.1429 9.97727V11.1591C20.1429 11.3222 20.2709 11.4545 20.4286 11.4545H21.5714C21.6472 11.4545 21.7199 11.4234 21.7735 11.368C21.827 11.3126 21.8571 11.2375 21.8571 11.1591V9.97727C21.8571 9.89891 21.827 9.82376 21.7735 9.76836C21.7199 9.71295 21.6472 9.68182 21.5714 9.68182H20.4286ZM21.8571 12.9318C21.8571 12.8535 21.827 12.7783 21.7735 12.7229C21.7199 12.6675 21.6472 12.6364 21.5714 12.6364H20.4286C20.3528 12.6364 20.2801 12.6675 20.2265 12.7229C20.173 12.7783 20.1429 12.8535 20.1429 12.9318V14.1136C20.1429 14.2767 20.2709 14.4091 20.4286 14.4091H21.5714C21.6472 14.4091 21.7199 14.378 21.7735 14.3226C21.827 14.2671 21.8571 14.192 21.8571 14.1136V12.9318ZM21.8571 15.8864C21.8571 15.808 21.827 15.7329 21.7735 15.6774C21.7199 15.622 21.6472 15.5909 21.5714 15.5909H20.4286C20.3528 15.5909 20.2801 15.622 20.2265 15.6774C20.173 15.7329 20.1429 15.808 20.1429 15.8864V17.0682C20.1429 17.2313 20.2709 17.3636 20.4286 17.3636H21.5714C21.6472 17.3636 21.7199 17.3325 21.7735 17.2771C21.827 17.2217 21.8571 17.1465 21.8571 17.0682V15.8864ZM21.8571 18.8409C21.8571 18.7625 21.827 18.6874 21.7735 18.632C21.7199 18.5766 21.6472 18.5455 21.5714 18.5455H20.4286C20.3528 18.5455 20.2801 18.5766 20.2265 18.632C20.173 18.6874 20.1429 18.7625 20.1429 18.8409V20.0227C20.1429 20.1858 20.2709 20.3182 20.4286 20.3182H21.5714C21.6472 20.3182 21.7199 20.2871 21.7735 20.2316C21.827 20.1762 21.8571 20.1011 21.8571 20.0227V18.8409ZM9.57143 20.3182C9.6472 20.3182 9.71988 20.2871 9.77346 20.2316C9.82704 20.1762 9.85714 20.1011 9.85714 20.0227V18.8409C9.85714 18.7625 9.82704 18.6874 9.77346 18.632C9.71988 18.5766 9.6472 18.5455 9.57143 18.5455H8.42857C8.3528 18.5455 8.28012 18.5766 8.22654 18.632C8.17296 18.6874 8.14286 18.7625 8.14286 18.8409V20.0227C8.14286 20.1858 8.27086 20.3182 8.42857 20.3182H9.57143ZM8.42857 17.3636H9.57143C9.6472 17.3636 9.71988 17.3325 9.77346 17.2771C9.82704 17.2217 9.85714 17.1465 9.85714 17.0682V15.8864C9.85714 15.808 9.82704 15.7329 9.77346 15.6774C9.71988 15.622 9.6472 15.5909 9.57143 15.5909H8.42857C8.3528 15.5909 8.28012 15.622 8.22654 15.6774C8.17296 15.7329 8.14286 15.808 8.14286 15.8864V17.0682C8.14286 17.2313 8.27086 17.3636 8.42857 17.3636ZM8.42857 14.4091H9.57143C9.6472 14.4091 9.71988 14.378 9.77346 14.3226C9.82704 14.2671 9.85714 14.192 9.85714 14.1136V12.9318C9.85714 12.8535 9.82704 12.7783 9.77346 12.7229C9.71988 12.6675 9.6472 12.6364 9.57143 12.6364H8.42857C8.3528 12.6364 8.28012 12.6675 8.22654 12.7229C8.17296 12.7783 8.14286 12.8535 8.14286 12.9318V14.1136C8.14286 14.2767 8.27086 14.4091 8.42857 14.4091ZM11.5714 14.4091C11.4199 14.4091 11.2745 14.4713 11.1674 14.5822C11.0602 14.693 11 14.8433 11 15C11 15.1567 11.0602 15.307 11.1674 15.4178C11.2745 15.5287 11.4199 15.5909 11.5714 15.5909H18.4286C18.5801 15.5909 18.7255 15.5287 18.8326 15.4178C18.9398 15.307 19 15.1567 19 15C19 14.8433 18.9398 14.693 18.8326 14.5822C18.7255 14.4713 18.5801 14.4091 18.4286 14.4091H11.5714Z" fill="white"/>
</svg>
