<svg width="30" height="30" viewBox="0 0 30 30" fill="none" xmlns="http://www.w3.org/2000/svg">
<path d="M19.4448 10.667C19.4146 10.6007 19.3612 10.5476 19.2947 10.5177L17.8581 9.87263C17.622 9.76659 17.622 9.43132 17.8581 9.32528L19.2947 8.6802C19.3612 8.65033 19.4146 8.59725 19.4448 8.53089L20.097 7.0993C20.2036 6.86512 20.5363 6.86512 20.643 7.0993L21.2951 8.53089C21.3254 8.59725 21.3787 8.65033 21.4452 8.6802L22.8818 9.32528C23.118 9.43132 23.118 9.76659 22.8818 9.87263L21.4452 10.5177C21.3787 10.5476 21.3254 10.6007 21.2951 10.667L20.643 12.0986C20.5363 12.3328 20.2036 12.3328 20.097 12.0986L19.4448 10.667ZM22.5691 15.0786C22.5028 15.0487 22.4496 14.9958 22.4193 14.9297L22.0435 14.1068C21.9367 13.873 21.6045 13.873 21.4977 14.1068L21.1219 14.9297C21.0916 14.9958 21.0384 15.0487 20.9721 15.0786L20.308 15.3776L20.1487 15.4493C19.9129 15.5555 19.9129 15.8903 20.1487 15.9964L20.9721 16.3672C21.0384 16.3971 21.0916 16.45 21.1219 16.5161L21.4977 17.339C21.6045 17.5728 21.9367 17.5728 22.0435 17.339L22.4193 16.5161C22.4496 16.45 22.5028 16.3971 22.5691 16.3672L23.3925 15.9964C23.6283 15.8903 23.6283 15.5555 23.3925 15.4493L22.5691 15.0786Z" fill="white"/>
<path fill-rule="evenodd" clip-rule="evenodd" d="M11.1035 9.79694C11.1398 9.61636 11.2381 9.45385 11.3814 9.33705C11.5248 9.22025 11.7046 9.15636 11.89 9.15625H13.7842C13.9697 9.15636 14.1494 9.22025 14.2928 9.33705C14.4362 9.45385 14.5344 9.61636 14.5708 9.79694L14.8365 11.1134C15.3971 11.3255 15.9198 11.6255 16.3847 12.0019L17.6673 11.5716C17.843 11.5126 18.0338 11.5159 18.2074 11.5808C18.3809 11.6458 18.5264 11.7684 18.6192 11.9278L19.5663 13.5566C19.6591 13.716 19.6935 13.9025 19.6635 14.0842C19.6335 14.266 19.541 14.4318 19.4018 14.5535L18.3849 15.4404C18.4797 16.0285 18.4797 16.6278 18.3849 17.2158L19.4018 18.1028C19.5409 18.2243 19.6334 18.3899 19.6636 18.5715C19.6937 18.7531 19.6596 18.9394 19.5671 19.0989L18.62 20.7285C18.5272 20.8881 18.3815 21.0108 18.2078 21.0757C18.0341 21.1407 17.8431 21.1438 17.6673 21.0847L16.3847 20.6544C15.9198 21.0308 15.3971 21.3308 14.8365 21.5429L14.5716 22.8593C14.5352 23.0399 14.437 23.2024 14.2936 23.3192C14.1502 23.436 13.9705 23.4999 13.785 23.5H11.89C11.7046 23.4999 11.5248 23.436 11.3814 23.3192C11.2381 23.2024 11.1398 23.0399 11.1035 22.8593L10.8378 21.5429C10.2772 21.3308 9.75449 21.0308 9.28955 20.6544L8.00696 21.0847C7.83127 21.1436 7.64044 21.1404 7.4669 21.0754C7.29337 21.0105 7.14784 20.8879 7.05505 20.7285L6.10795 19.0997C6.01513 18.9402 5.98079 18.7538 6.01079 18.572C6.04079 18.3903 6.13326 18.2245 6.27249 18.1028L7.28941 17.215C7.19471 16.6272 7.19471 16.0282 7.28941 15.4404L6.27249 14.5535C6.13333 14.4319 6.04082 14.2663 6.01068 14.0847C5.98054 13.9032 6.01463 13.7168 6.10715 13.5574L7.05424 11.9278C7.14707 11.7682 7.29273 11.6455 7.46644 11.5805C7.64015 11.5156 7.83116 11.5124 8.00696 11.5716L9.28955 12.0019C9.75473 11.6254 10.2777 11.3254 10.8386 11.1134L11.1035 9.79694ZM12.8371 18.7188C13.4757 18.7188 14.0882 18.4669 14.5398 18.0186C14.9913 17.5702 15.245 16.9622 15.245 16.3281C15.245 15.6941 14.9913 15.086 14.5398 14.6377C14.0882 14.1894 13.4757 13.9375 12.8371 13.9375C12.1985 13.9375 11.5861 14.1894 11.1345 14.6377C10.683 15.086 10.4293 15.6941 10.4293 16.3281C10.4293 16.9622 10.683 17.5702 11.1345 18.0186C11.5861 18.4669 12.1985 18.7188 12.8371 18.7188Z" fill="white"/>
<circle cx="15" cy="15" r="14.5" stroke="white"/>
</svg>
