<svg width="24" height="24" viewBox="0 0 24 24" fill="none" xmlns="http://www.w3.org/2000/svg">
<path d="M23.1187 20L13.7717 2.14998C13.6023 1.82672 13.3477 1.55598 13.0354 1.36707C12.7231 1.17817 12.3651 1.07831 12.0002 1.07831C11.6352 1.07831 11.2772 1.17817 10.965 1.36707C10.6527 1.55598 10.3981 1.82672 10.2287 2.14998L0.880673 20C0.720994 20.3048 0.642677 20.6457 0.653296 20.9897C0.663915 21.3337 0.76311 21.6691 0.941289 21.9635C1.11947 22.2579 1.3706 22.5014 1.67041 22.6703C1.97021 22.8393 2.30854 22.928 2.65267 22.928H21.3467C21.6908 22.928 22.0291 22.8393 22.3289 22.6703C22.6287 22.5014 22.8799 22.2579 23.0581 21.9635C23.2362 21.6691 23.3354 21.3337 23.3461 20.9897C23.3567 20.6457 23.2784 20.3048 23.1187 20V20ZM10.9997 8.42298C10.9997 8.15777 11.105 7.90341 11.2926 7.71588C11.4801 7.52834 11.7345 7.42298 11.9997 7.42298C12.2649 7.42298 12.5192 7.52834 12.7068 7.71588C12.8943 7.90341 12.9997 8.15777 12.9997 8.42298V14.423C12.9997 14.6882 12.8943 14.9426 12.7068 15.1301C12.5192 15.3176 12.2649 15.423 11.9997 15.423C11.7345 15.423 11.4801 15.3176 11.2926 15.1301C11.105 14.9426 10.9997 14.6882 10.9997 14.423V8.42298ZM12.0497 19.933H12.0217C11.6273 19.9317 11.2487 19.778 10.9651 19.5041C10.6814 19.2301 10.5146 18.8571 10.4997 18.463C10.4925 18.267 10.5244 18.0715 10.5936 17.888C10.6628 17.7045 10.7678 17.5366 10.9027 17.3942C11.0375 17.2517 11.1993 17.1376 11.3787 17.0584C11.5582 16.9792 11.7516 16.9366 11.9477 16.933H11.9757C12.37 16.9335 12.7488 17.0864 13.0328 17.3599C13.3169 17.6333 13.4842 18.006 13.4997 18.4C13.5074 18.5964 13.4758 18.7924 13.4068 18.9765C13.3377 19.1605 13.2325 19.3289 13.0974 19.4717C12.9623 19.6146 12.8 19.7289 12.6201 19.8082C12.4402 19.8874 12.2462 19.9298 12.0497 19.933V19.933Z" fill="#EE7A7A"/>
</svg>
