<svg width="30" height="30" viewBox="0 0 30 30" fill="none" xmlns="http://www.w3.org/2000/svg">
<circle cx="15" cy="15" r="14.5" stroke="white"/>
<path d="M22.4531 9.9375H20.625V20.625C20.625 20.9234 20.7435 21.2095 20.9545 21.4205C21.1655 21.6315 21.4516 21.75 21.75 21.75C22.0484 21.75 22.3345 21.6315 22.5455 21.4205C22.7565 21.2095 22.875 20.9234 22.875 20.625V10.3594C22.875 10.2475 22.8306 10.1402 22.7514 10.0611C22.6723 9.98195 22.565 9.9375 22.4531 9.9375Z" fill="white"/>
<path d="M21.1576 22.7959C20.6818 22.6654 20.2619 22.3823 19.9625 21.9901C19.6631 21.598 19.5006 21.1184 19.5 20.625V7.54688C19.5 7.43499 19.4556 7.32768 19.3764 7.24856C19.2973 7.16945 19.19 7.125 19.0781 7.125H7.54688C7.43499 7.125 7.32768 7.16945 7.24856 7.24856C7.16945 7.32768 7.125 7.43499 7.125 7.54688V20.9062C7.125 21.4284 7.33242 21.9292 7.70163 22.2984C8.07085 22.6676 8.57161 22.875 9.09375 22.875H21.1471C21.157 22.8754 21.1668 22.872 21.1744 22.8656C21.1821 22.8592 21.187 22.8501 21.1883 22.8402C21.1897 22.8304 21.1872 22.8203 21.1816 22.8121C21.1759 22.8039 21.1673 22.7981 21.1576 22.7959V22.7959ZM9.375 13.3125V9.9375H12.75V13.3125H9.375ZM17.25 20.0625H9.375V18.9375H17.25V20.0625ZM17.25 17.8125H9.375V16.6875H17.25V17.8125ZM17.25 15.5625H9.375V14.4375H17.25V15.5625ZM17.25 13.3125H13.875V12.1875H17.25V13.3125ZM17.25 11.0625H13.875V9.9375H17.25V11.0625Z" fill="white"/>
</svg>
