<?xml version="1.0" encoding="UTF-8" standalone="no"?>
<svg
   version="1.1"
   x="0px"
   y="0px"
   viewBox="0 0 24.9 35.599998"
   xml:space="preserve"
   id="svg3"
   sodipodi:docname="noun-pause-1248879.svg"
   width="24.9"
   height="35.599998"
   inkscape:version="1.3 (0e150ed, 2023-07-21)"
   xmlns:inkscape="http://www.inkscape.org/namespaces/inkscape"
   xmlns:sodipodi="http://sodipodi.sourceforge.net/DTD/sodipodi-0.dtd"
   xmlns="http://www.w3.org/2000/svg"
   xmlns:svg="http://www.w3.org/2000/svg"><defs
     id="defs3" /><sodipodi:namedview
     id="namedview3"
     pagecolor="#ffffff"
     bordercolor="#000000"
     borderopacity="0.25"
     inkscape:showpageshadow="2"
     inkscape:pageopacity="0.0"
     inkscape:pagecheckerboard="0"
     inkscape:deskcolor="#d1d1d1"
     inkscape:zoom="1.888"
     inkscape:cx="7.9449153"
     inkscape:cy="36.54661"
     inkscape:window-width="1312"
     inkscape:window-height="429"
     inkscape:window-x="0"
     inkscape:window-y="38"
     inkscape:window-maximized="0"
     inkscape:current-layer="svg3" /><g
     id="g2"
     transform="translate(-37.5,-32.2)"><path
      fill="#FFFFFF"
       d="m 54.2,67.8 h 7.4 c 0.4,0 0.8,-0.4 0.8,-0.8 V 33 c 0,-0.4 -0.4,-0.8 -0.8,-0.8 h -7.4 c -0.4,0 -0.8,0.4 -0.8,0.8 v 34 c 0,0.4 0.4,0.8 0.8,0.8 z"
       id="path1" /><path
        fill="#FFFFFF"
       d="m 38.3,67.8 h 7.4 c 0.4,0 0.8,-0.4 0.8,-0.8 V 33 c 0,-0.4 -0.4,-0.8 -0.8,-0.8 h -7.4 c -0.4,0 -0.8,0.4 -0.8,0.8 v 34 c 0,0.4 0.4,0.8 0.8,0.8 z"
       id="path2" /></g></svg>
