<svg width="30" height="30" viewBox="0 0 30 30" fill="none" xmlns="http://www.w3.org/2000/svg">
<circle cx="15" cy="15" r="14.5" stroke="white"/>
<path d="M6 10.5C6 9.90326 6.23705 9.33097 6.65901 8.90901C7.08097 8.48705 7.65326 8.25 8.25 8.25H21.75C22.3467 8.25 22.919 8.48705 23.341 8.90901C23.7629 9.33097 24 9.90326 24 10.5V11.625H6V10.5ZM6 13.875V19.5C6 20.0967 6.23705 20.669 6.65901 21.091C7.08097 21.5129 7.65326 21.75 8.25 21.75H21.75C22.3467 21.75 22.919 21.5129 23.341 21.091C23.7629 20.669 24 20.0967 24 19.5V13.875H6ZM9.375 16.125H10.5C10.7984 16.125 11.0845 16.2435 11.2955 16.4545C11.5065 16.6655 11.625 16.9516 11.625 17.25V18.375C11.625 18.6734 11.5065 18.9595 11.2955 19.1705C11.0845 19.3815 10.7984 19.5 10.5 19.5H9.375C9.07663 19.5 8.79048 19.3815 8.5795 19.1705C8.36853 18.9595 8.25 18.6734 8.25 18.375V17.25C8.25 16.9516 8.36853 16.6655 8.5795 16.4545C8.79048 16.2435 9.07663 16.125 9.375 16.125V16.125Z" fill="white"/>
</svg>
