<svg xmlns="http://www.w3.org/2000/svg" xmlns:xlink="http://www.w3.org/1999/xlink" viewBox="0,0,256,256" width="48px" height="48px" fill-rule="nonzero"><g fill="#ffffff" fill-rule="nonzero" stroke="none" stroke-width="1" stroke-linecap="butt" stroke-linejoin="miter" stroke-miterlimit="10" stroke-dasharray="" stroke-dashoffset="0" font-family="none" font-weight="none" font-size="none" text-anchor="none" style="mix-blend-mode: normal"><g transform="scale(5.33333,5.33333)"><path d="M26.98242,4c-0.70377,0.00811 -1.30728,0.5044 -1.45117,1.19336l-2.26367,10.86328c-4.76131,0.13469 -9.04272,1.5477 -12.3125,3.84375c-0.88049,-0.51767 -1.85492,-0.90039 -2.95508,-0.90039c-3.29587,0 -6,2.70414 -6,6c0,2.20029 1.23814,4.06879 3.01563,5.10742c0.04173,3.97416 2.30959,7.50412 5.73828,9.95313c3.46054,2.47175 8.1241,3.93945 13.24609,3.93945c5.122,0 9.78556,-1.4677 13.24609,-3.93945c3.42869,-2.44901 5.69656,-5.97897 5.73828,-9.95312c1.77748,-1.03863 3.01563,-2.90713 3.01563,-5.10742c0,-3.29586 -2.70414,-6 -6,-6c-1.10016,0 -2.07458,0.38272 -2.95508,0.90039c-2.9021,-2.03786 -6.60595,-3.35236 -10.73633,-3.72266l1.85938,-8.92773l5.95898,1.13477c0.39462,1.50044 1.75041,2.61523 3.37305,2.61523c1.93,0 3.5,-1.57 3.5,-3.5c0,-1.93 -1.57,-3.5 -3.5,-3.5c-1.15649,0 -2.17683,0.57038 -2.81445,1.4375l-7.4043,-1.41016c-0.09845,-0.01908 -0.19856,-0.02824 -0.29883,-0.02734zM24,19c4.86032,0 9.18162,1.53291 12.07422,3.83398c0.57262,0.45579 1.39056,0.43186 1.93555,-0.05664c0.54545,-0.48797 1.22492,-0.77734 1.99023,-0.77734c1.67413,0 3,1.32587 3,3c0,1.32721 -0.8517,2.41687 -2.03906,2.82227c-0.65255,0.22285 -1.06914,0.86184 -1.00977,1.54883c0.02546,0.29158 0.04883,0.49791 0.04883,0.62891c0,2.88457 -1.62483,5.56689 -4.49805,7.61914c-2.87321,2.05225 -6.95895,3.38086 -11.50195,3.38086c-4.543,0 -8.62874,-1.32861 -11.50195,-3.38086c-2.87321,-2.05225 -4.49805,-4.73457 -4.49805,-7.61914c0,-0.131 0.02337,-0.33733 0.04883,-0.62891c0.05938,-0.68699 -0.35722,-1.32598 -1.00977,-1.54883c-1.18737,-0.40539 -2.03906,-1.49505 -2.03906,-2.82227c0,-1.67413 1.32587,-3 3,-3c0.76532,0 1.44478,0.28938 1.99023,0.77734c0.54499,0.4885 1.36293,0.51243 1.93555,0.05664c2.8926,-2.30108 7.2139,-3.83398 12.07422,-3.83398zM16.5,23c-1.375,0 -2.59619,0.56963 -3.37109,1.44141c-0.77491,0.87177 -1.12891,1.97526 -1.12891,3.05859c0,1.08333 0.354,2.18682 1.12891,3.05859c0.77491,0.87177 1.99609,1.44141 3.37109,1.44141c1.375,0 2.59618,-0.56963 3.37109,-1.44141c0.77491,-0.87177 1.12891,-1.97526 1.12891,-3.05859c0,-1.08333 -0.354,-2.18682 -1.12891,-3.05859c-0.77491,-0.87177 -1.99609,-1.44141 -3.37109,-1.44141zM31.5,23c-1.375,0 -2.59618,0.56963 -3.37109,1.44141c-0.77491,0.87177 -1.12891,1.97526 -1.12891,3.05859c0,1.08333 0.354,2.18682 1.12891,3.05859c0.77491,0.87177 1.99609,1.44141 3.37109,1.44141c1.375,0 2.59618,-0.56963 3.37109,-1.44141c0.77491,-0.87177 1.12891,-1.97526 1.12891,-3.05859c0,-1.08333 -0.354,-2.18682 -1.12891,-3.05859c-0.77491,-0.87177 -1.99609,-1.44141 -3.37109,-1.44141zM16.5,26c0.625,0 0.90382,0.18037 1.12891,0.43359c0.22509,0.25323 0.37109,0.64974 0.37109,1.06641c0,0.41667 -0.146,0.81318 -0.37109,1.06641c-0.22509,0.25323 -0.50391,0.43359 -1.12891,0.43359c-0.625,0 -0.90382,-0.18037 -1.12891,-0.43359c-0.22509,-0.25323 -0.37109,-0.64974 -0.37109,-1.06641c0,-0.41667 0.146,-0.81318 0.37109,-1.06641c0.22509,-0.25323 0.50391,-0.43359 1.12891,-0.43359zM31.5,26c0.625,0 0.90382,0.18037 1.12891,0.43359c0.22509,0.25323 0.37109,0.64974 0.37109,1.06641c0,0.41667 -0.146,0.81318 -0.37109,1.06641c-0.22509,0.25323 -0.50391,0.43359 -1.12891,0.43359c-0.625,0 -0.90382,-0.18037 -1.12891,-0.43359c-0.22509,-0.25323 -0.37109,-0.64974 -0.37109,-1.06641c0,-0.41667 0.146,-0.81318 0.37109,-1.06641c0.22509,-0.25323 0.50391,-0.43359 1.12891,-0.43359zM30.48633,33.97852c-0.39614,0.00935 -0.77249,0.17506 -1.04687,0.46094c0,0 -0.26263,0.29016 -1.14062,0.70313c-0.87799,0.41296 -2.27094,0.85547 -4.29883,0.85547c-2.02789,0 -3.42084,-0.4425 -4.29883,-0.85547c-0.87799,-0.41296 -1.14062,-0.70312 -1.14062,-0.70312c-0.28248,-0.2909 -0.67069,-0.45506 -1.07617,-0.45508c-0.61065,0.00015 -1.16026,0.37042 -1.38978,0.93629c-0.22952,0.56587 -0.09314,1.21439 0.34486,1.63988c0,0 0.73737,0.71034 1.98438,1.29688c1.24701,0.58653 3.10406,1.14063 5.57617,1.14063c2.47211,0 4.32916,-0.55409 5.57617,-1.14062c1.24701,-0.58653 1.98438,-1.29687 1.98438,-1.29687c0.44646,-0.42851 0.58398,-1.08719 0.34628,-1.65854c-0.2377,-0.57135 -0.80184,-0.93811 -1.4205,-0.92349z"></path></g></g></svg>