<svg width="33" height="31" viewBox="0 0 33 31" fill="none" xmlns="http://www.w3.org/2000/svg">
<path d="M3.84727 22.3475V18.4805H0V22.3475H3.84727Z" fill="url(#paint0_linear_546_1603)"/>
<path d="M32.1878 15.0563C32.2172 16.2076 32.0997 17.3588 31.8941 18.5101C31.5123 20.4583 30.7781 22.318 29.7502 23.9711C28.458 26.0374 26.6666 27.7495 24.5814 28.9893C22.2613 30.3472 19.5888 31.0556 16.9162 30.9966C14.3905 30.9671 11.8942 30.2881 9.69158 29.0188C7.66516 27.8676 5.96179 26.2145 4.66958 24.2958C4.61084 24.2072 4.58147 24.1482 4.52274 24.0596C4.84579 24.5024 5.34505 24.8862 5.75621 25.2404C6.22611 25.6241 6.75474 25.9784 7.28337 26.2735C8.39937 26.8934 9.60348 27.2772 10.8663 27.4248C11.16 27.4543 11.4537 27.4838 11.718 27.4838C14.0381 27.5724 16.3582 26.8639 18.2378 25.447C18.7371 25.0928 19.1776 24.6795 19.5888 24.2072C20.881 22.7903 21.7914 20.9896 22.1144 19.1004C22.2613 18.2444 22.32 17.3588 22.2319 16.5028C22.2319 16.3847 22.0263 15.0563 22.0263 15.0563C22.0263 15.0563 22.7312 14.7021 23.8765 14.7021C26.1086 14.7021 29.1041 17.1522 29.251 20.045C29.1922 18.3329 28.7517 16.7389 27.9588 15.3515C27.6944 14.8497 27.3714 14.3774 27.019 13.9641C25.1394 11.6026 22.2613 10.0676 19.0014 10.0676C18.1497 10.0676 17.3274 10.1562 16.5344 10.3628C16.4757 10.3923 16.3876 10.3923 16.3289 10.4219C15.066 10.7466 13.9794 11.2779 12.4522 12.3701C11.6886 12.9014 10.1321 14.2888 8.928 15.381C8.2819 15.9714 7.28337 15.3515 7.48895 14.525C7.66516 13.7575 7.95885 12.8719 8.39937 11.9273C5.96179 8.76879 5.90305 5.07892 10.6607 1.80231C13.4507 -0.116422 18.0322 -0.647764 22.2613 0.916742C24.9044 -0.441131 28.5461 -0.559207 31.9235 3.07163C32.2466 3.42586 32.0116 4.04575 31.5123 4.04575C30.5432 4.07527 29.2216 4.31143 28.1937 5.07892C28.3406 5.25603 28.458 5.40363 28.6049 5.58074C30.7194 8.35553 32.0997 11.6026 32.1878 15.0563Z" fill="url(#paint1_linear_546_1603)"/>
<defs>
<linearGradient id="paint0_linear_546_1603" x1="1.88734" y1="17.8846" x2="1.88734" y2="22.773" gradientUnits="userSpaceOnUse">
<stop stop-color="white"/>
<stop offset="0.592892" stop-color="#EBE5FB"/>
<stop offset="1" stop-color="#7FABFF"/>
</linearGradient>
<linearGradient id="paint1_linear_546_1603" x1="18.3615" y1="0" x2="18.3615" y2="36.0077" gradientUnits="userSpaceOnUse">
<stop stop-color="white"/>
<stop offset="0.497369" stop-color="#EBE5FB"/>
<stop offset="1" stop-color="#7FABFF"/>
</linearGradient>
</defs>
</svg>
