<svg width="33" height="32" viewBox="0 0 33 32" fill="none" xmlns="http://www.w3.org/2000/svg">
<g clip-path="url(#clip0_3048_381)">
<path d="M33 16C33 7.16344 25.6127 0 16.5 0C7.3873 0 0 7.16344 0 16C0 23.9861 6.03381 30.6053 13.9219 31.8056V20.625H9.73242V16H13.9219V12.475C13.9219 8.465 16.3852 6.25 20.1542 6.25C21.9594 6.25 23.8477 6.5625 23.8477 6.5625V10.5H21.767C19.7173 10.5 19.0781 11.7333 19.0781 12.9987V16H23.6543L22.9228 20.625H19.0781V31.8056C26.9662 30.6053 33 23.9861 33 16Z" fill="#C3CAD9"/>
</g>
<defs>
<clipPath id="clip0_3048_381">
<rect width="33" height="32" fill="white"/>
</clipPath>
</defs>
</svg>
