<svg width="33" height="32" viewBox="0 0 33 32" fill="none" xmlns="http://www.w3.org/2000/svg">
<g clip-path="url(#clip0_3048_392)">
<path d="M27.7655 27.266H23.0241V19.8406C23.0241 18.07 22.9925 15.7906 20.5581 15.7906C18.0886 15.7906 17.7108 17.7198 17.7108 19.7117V27.2655H12.9694V11.9959H17.5211V14.0827H17.5848C18.513 12.4957 20.2387 11.5479 22.0758 11.6161C26.8814 11.6161 27.7675 14.7771 27.7675 18.8894L27.7655 27.266ZM7.61951 9.90867C6.0999 9.90894 4.86779 8.67725 4.86752 7.15761C4.86725 5.63797 6.09891 4.40584 7.61852 4.40556C9.13813 4.40529 10.3702 5.63698 10.3705 7.15662C10.3706 7.88638 10.0809 8.5863 9.56496 9.10241C9.04905 9.61852 8.34925 9.90854 7.61951 9.90867ZM9.99021 27.266H5.24387V11.9959H9.99021V27.266ZM30.1293 0.0023861H2.86132C1.57257 -0.0121577 0.515728 1.02017 0.5 2.30893V29.6906C0.51519 30.98 1.57195 32.0133 2.86132 31.9998H30.1293C31.4212 32.0158 32.4821 30.9825 32.5 29.6906V2.30695C32.4816 1.01565 31.4206 -0.0166202 30.1293 0.000202735" fill="#C3CAD9"/>
</g>
<defs>
<clipPath id="clip0_3048_392">
<rect width="33" height="32" fill="white"/>
</clipPath>
</defs>
</svg>
