<svg width="33" height="33" viewBox="0 0 33 33" fill="none" xmlns="http://www.w3.org/2000/svg">
<path fill-rule="evenodd" clip-rule="evenodd" d="M33 16.5C33 25.6126 25.6126 33 16.5 33C7.38736 33 0 25.6126 0 16.5C0 7.38736 7.38736 0 16.5 0C25.6126 0 33 7.38736 33 16.5ZM20.2813 19.9379C19.3336 19.9379 18.5625 19.1668 18.5625 18.2191C18.5625 17.2714 19.3336 16.5 20.2813 16.5C21.2291 16.5 21.9999 17.2714 21.9999 18.2191C21.9999 19.1668 21.2291 19.9379 20.2813 19.9379ZM20.5838 22.7605C19.4107 23.932 17.1628 24.023 16.5021 24.023C15.8408 24.023 13.5929 23.932 12.4211 22.7602C12.2474 22.5864 12.2474 22.3044 12.4214 22.1304C12.5952 21.9566 12.8772 21.9563 13.0512 22.1304C13.7906 22.8698 15.3723 23.1322 16.5021 23.1322C17.6318 23.1322 19.2137 22.8698 19.9544 22.1301C20.1287 21.9563 20.4105 21.9566 20.5843 22.1306C20.758 22.3046 20.758 22.5867 20.5838 22.7605ZM11.0001 18.2188C11.0001 17.2711 11.7715 16.5 12.7194 16.5C13.6666 16.5 14.4375 17.2711 14.4375 18.2188C14.4375 19.1663 13.6666 19.9374 12.7194 19.9374C11.7715 19.9374 11.0001 19.1663 11.0001 18.2188ZM27.4972 16.5C27.4972 15.171 26.4201 14.0938 25.0911 14.0938C24.4424 14.0938 23.8549 14.3516 23.4223 14.769C21.7774 13.5821 19.5112 12.8156 16.9873 12.7274L18.0832 7.57041L21.6645 8.33173C21.7081 9.24206 22.4537 9.96884 23.3751 9.96884C24.3243 9.96884 25.0937 9.19927 25.0937 8.25C25.0937 7.30073 24.3243 6.53116 23.3751 6.53116C22.6999 6.53116 22.1216 6.92407 21.8403 7.49048L17.8417 6.64048C17.7303 6.61624 17.6137 6.63816 17.5184 6.70055C17.4227 6.76242 17.3557 6.86013 17.332 6.97151L16.1079 12.7259C13.5468 12.7968 11.2442 13.5645 9.57851 14.7647C9.14616 14.3498 8.56066 14.0938 7.91433 14.0938C6.5853 14.0938 5.50816 15.171 5.50816 16.5C5.50816 17.4779 6.09237 18.3176 6.92974 18.694C6.89262 18.9332 6.87225 19.1758 6.87225 19.4218C6.87225 23.124 11.1816 26.1249 16.4974 26.1249C21.813 26.1249 26.1223 23.124 26.1223 19.4218C26.1223 19.1774 26.1025 18.9363 26.0659 18.6989C26.9087 18.3245 27.4972 17.4818 27.4972 16.5Z" fill="#B1B7C3"/>
</svg>
