<svg width="30" height="30" viewBox="0 0 30 30" fill="none" xmlns="http://www.w3.org/2000/svg">
<circle cx="15" cy="15" r="14.5" stroke="white"/>
<path d="M19.9871 17.3288C21.8996 17.9081 24 18.5438 24 15C24 13.22 23.4722 11.4799 22.4832 9.99987C21.4943 8.51983 20.0887 7.36628 18.4442 6.68509C16.7996 6.0039 14.99 5.82567 13.2442 6.17294C11.4984 6.5202 9.89472 7.37737 8.63604 8.63604C7.37737 9.89472 6.5202 11.4984 6.17294 13.2442C5.82567 14.99 6.0039 16.7996 6.68509 18.4442C7.36628 20.0887 8.51983 21.4943 9.99987 22.4832C11.4799 23.4722 13.22 24 15 24C17.2455 24 17.0543 22.308 16.8551 20.535C16.7156 19.2964 16.5716 18.0184 17.25 17.25C17.7731 16.6571 18.8475 16.9834 19.9871 17.3288ZM15 11.625C14.7784 11.625 14.559 11.5814 14.3542 11.4966C14.1495 11.4117 13.9635 11.2874 13.8068 11.1307C13.6501 10.974 13.5258 10.788 13.441 10.5833C13.3562 10.3785 13.3125 10.1591 13.3125 9.9375C13.3125 9.7159 13.3562 9.49646 13.441 9.29173C13.5258 9.08699 13.6501 8.90096 13.8068 8.74426C13.9635 8.58756 14.1495 8.46326 14.3542 8.37846C14.559 8.29365 14.7784 8.25 15 8.25C15.4476 8.25 15.8768 8.42779 16.1932 8.74426C16.5097 9.06073 16.6875 9.48995 16.6875 9.9375C16.6875 10.3851 16.5097 10.8143 16.1932 11.1307C15.8768 11.4472 15.4476 11.625 15 11.625V11.625ZM20.0625 15C19.615 15 19.1857 14.8222 18.8693 14.5057C18.5528 14.1893 18.375 13.7601 18.375 13.3125C18.375 12.865 18.5528 12.4357 18.8693 12.1193C19.1857 11.8028 19.615 11.625 20.0625 11.625C20.5101 11.625 20.9393 11.8028 21.2557 12.1193C21.5722 12.4357 21.75 12.865 21.75 13.3125C21.75 13.7601 21.5722 14.1893 21.2557 14.5057C20.9393 14.8222 20.5101 15 20.0625 15V15ZM11.625 13.3125C11.625 13.5341 11.5814 13.7535 11.4966 13.9583C11.4117 14.163 11.2874 14.349 11.1307 14.5057C10.974 14.6624 10.788 14.7867 10.5833 14.8716C10.3785 14.9564 10.1591 15 9.9375 15C9.7159 15 9.49646 14.9564 9.29173 14.8716C9.08699 14.7867 8.90096 14.6624 8.74426 14.5057C8.58756 14.349 8.46326 14.163 8.37846 13.9583C8.29365 13.7535 8.25 13.5341 8.25 13.3125C8.25 12.865 8.42779 12.4357 8.74426 12.1193C9.06073 11.8028 9.48995 11.625 9.9375 11.625C10.3851 11.625 10.8143 11.8028 11.1307 12.1193C11.4472 12.4357 11.625 12.865 11.625 13.3125V13.3125ZM12.1875 20.625C11.74 20.625 11.3107 20.4472 10.9943 20.1307C10.6778 19.8143 10.5 19.3851 10.5 18.9375C10.5 18.49 10.6778 18.0607 10.9943 17.7443C11.3107 17.4278 11.74 17.25 12.1875 17.25C12.6351 17.25 13.0643 17.4278 13.3807 17.7443C13.6972 18.0607 13.875 18.49 13.875 18.9375C13.875 19.3851 13.6972 19.8143 13.3807 20.1307C13.0643 20.4472 12.6351 20.625 12.1875 20.625Z" fill="white"/>
</svg>
